<svg width="667" height="800" viewBox="0 0 667 800" fill="none" xmlns="http://www.w3.org/2000/svg">
<g clip-path="url(#clip0_1_1234)">
<rect width="667" height="800" fill="#2563EB"/>
<ellipse cx="272.466" cy="745.345" rx="423.092" ry="192.034" transform="rotate(15.8593 272.466 745.345)" fill="#0E4BD1"/>
<ellipse cx="135.466" cy="745.345" rx="423.092" ry="192.034" transform="rotate(15.8593 135.466 745.345)" fill="#0D4EDC"/>
<path d="M196.958 344.5H181.875L170.563 378.437L147.938 310.562L136.625 344.5H121.542" stroke="#E4E4E7" stroke-width="7.54167" stroke-linecap="round" stroke-linejoin="round"/>
<path d="M284.309 319.407L265.685 369H256.266L237.57 319.407H246.276L260.975 360.651L275.746 319.407H284.309ZM308.166 369.642C304.456 369.642 301.102 368.81 298.105 367.145C295.108 365.432 292.753 363.054 291.041 360.009C289.328 356.917 288.472 353.349 288.472 349.305C288.472 345.309 289.352 341.765 291.112 338.673C292.872 335.581 295.274 333.203 298.319 331.537C301.364 329.873 304.765 329.04 308.523 329.04C312.281 329.04 315.683 329.873 318.727 331.537C321.772 333.203 324.174 335.581 325.934 338.673C327.694 341.765 328.574 345.309 328.574 349.305C328.574 353.301 327.671 356.846 325.863 359.938C324.055 363.03 321.581 365.432 318.442 367.145C315.35 368.81 311.924 369.642 308.166 369.642ZM308.166 362.578C310.259 362.578 312.21 362.078 314.018 361.079C315.873 360.08 317.371 358.582 318.513 356.584C319.655 354.586 320.226 352.16 320.226 349.305C320.226 346.451 319.679 344.049 318.584 342.098C317.49 340.1 316.039 338.602 314.232 337.603C312.424 336.604 310.473 336.104 308.38 336.104C306.287 336.104 304.337 336.604 302.529 337.603C300.769 338.602 299.366 340.1 298.319 342.098C297.272 344.049 296.749 346.451 296.749 349.305C296.749 353.539 297.819 356.822 299.96 359.153C302.148 361.436 304.884 362.578 308.166 362.578ZM344.751 316.196V369H336.616V316.196H344.751ZM363.566 316.196V369H355.431V316.196H363.566ZM377.528 369.499C376.053 369.499 374.817 369 373.818 368.001C372.819 367.002 372.319 365.765 372.319 364.29C372.319 362.816 372.819 361.579 373.818 360.58C374.817 359.581 376.053 359.081 377.528 359.081C378.955 359.081 380.168 359.581 381.167 360.58C382.166 361.579 382.666 362.816 382.666 364.29C382.666 365.765 382.166 367.002 381.167 368.001C380.168 369 378.955 369.499 377.528 369.499ZM439.053 329.04C442.145 329.04 444.904 329.682 447.331 330.967C449.804 332.251 451.731 334.154 453.11 336.675C454.538 339.197 455.251 342.241 455.251 345.809V369H447.188V347.022C447.188 343.502 446.308 340.814 444.548 338.959C442.787 337.056 440.385 336.104 437.341 336.104C434.296 336.104 431.87 337.056 430.062 338.959C428.302 340.814 427.422 343.502 427.422 347.022V369H419.359V347.022C419.359 343.502 418.478 340.814 416.718 338.959C414.958 337.056 412.556 336.104 409.511 336.104C406.467 336.104 404.041 337.056 402.233 338.959C400.473 340.814 399.593 343.502 399.593 347.022V369H391.458V329.682H399.593V334.178C400.925 332.56 402.613 331.3 404.659 330.396C406.705 329.492 408.893 329.04 411.224 329.04C414.364 329.04 417.17 329.706 419.644 331.038C422.118 332.37 424.021 334.297 425.353 336.818C426.542 334.439 428.397 332.56 430.918 331.181C433.44 329.754 436.151 329.04 439.053 329.04ZM501.638 348.378C501.638 349.852 501.543 351.184 501.352 352.374H471.311C471.549 355.513 472.714 358.035 474.807 359.938C476.901 361.84 479.469 362.792 482.514 362.792C486.891 362.792 489.983 360.96 491.79 357.297H500.567C499.378 360.913 497.214 363.886 494.074 366.217C490.982 368.501 487.128 369.642 482.514 369.642C478.756 369.642 475.378 368.81 472.381 367.145C469.432 365.432 467.101 363.054 465.388 360.009C463.723 356.917 462.891 353.349 462.891 349.305C462.891 345.262 463.7 341.718 465.317 338.673C466.982 335.581 469.289 333.203 472.239 331.537C475.236 329.873 478.661 329.04 482.514 329.04C486.225 329.04 489.531 329.849 492.433 331.466C495.335 333.084 497.594 335.367 499.212 338.316C500.829 341.218 501.638 344.572 501.638 348.378ZM493.146 345.809C493.099 342.812 492.028 340.41 489.935 338.602C487.842 336.794 485.249 335.89 482.157 335.89C479.351 335.89 476.948 336.794 474.95 338.602C472.952 340.362 471.763 342.764 471.382 345.809H493.146ZM506.932 349.163C506.932 345.214 507.74 341.718 509.358 338.673C511.023 335.629 513.259 333.274 516.065 331.609C518.92 329.896 522.083 329.04 525.556 329.04C528.125 329.04 530.646 329.611 533.12 330.753C535.641 331.847 537.639 333.321 539.114 335.177V316.196H547.32V369H539.114V363.077C537.782 364.98 535.926 366.55 533.548 367.787C531.217 369.024 528.529 369.642 525.484 369.642C522.059 369.642 518.92 368.786 516.065 367.073C513.259 365.313 511.023 362.887 509.358 359.795C507.74 356.655 506.932 353.111 506.932 349.163ZM539.114 349.305C539.114 346.594 538.543 344.239 537.401 342.241C536.307 340.243 534.856 338.721 533.048 337.674C531.241 336.628 529.29 336.104 527.197 336.104C525.104 336.104 523.153 336.628 521.346 337.674C519.538 338.673 518.063 340.172 516.922 342.17C515.827 344.12 515.28 346.451 515.28 349.163C515.28 351.874 515.827 354.253 516.922 356.298C518.063 358.344 519.538 359.914 521.346 361.008C523.201 362.055 525.151 362.578 527.197 362.578C529.29 362.578 531.241 362.055 533.048 361.008C534.856 359.961 536.307 358.439 537.401 356.441C538.543 354.396 539.114 352.017 539.114 349.305Z" fill="white"/>
</g>
<defs>
<clipPath id="clip0_1_1234">
<rect width="667" height="800" fill="white"/>
</clipPath>
</defs>
</svg>
